<?xml version="1.0" encoding="UTF-8"?>
<svg id="Layer_1" data-name="Layer 1" xmlns="http://www.w3.org/2000/svg" viewBox="0 0 212.26 83.83">
  <defs>
    <style>
      .cls-1 {
        fill: #c42126;
      }
    </style>
  </defs>
  <path class="cls-1" d="M104.33,83.83c-.68,0-1.43-.5-2.29-1.52-9.44-11.42-30.65-18.8-43.43-23.22.16,1.02.31,1.98.45,2.89.81,5.19,1.34,8.62,1.34,11.1,0,.56,0,1.59-1.09,1.59-1.18-.16-1.28-.96-1.68-4.33-.12-1.04-.28-2.33-.5-3.95,0-.03-.5-3.51-1.07-8.26-2.95-1.18-5.88-2.43-7.48-3.59-2.07-1.46-3.13-3.22-3.13-5.24,0-4.14,2.63-6.38,8.28-7.02-.68-4.35-1.37-8.67-1.88-10.29,0-.02-.01-.05-.01-.08,0-1.25,1.32-2.43,2.35-2.43s1.27,2.14,1.53,5.11c.05.51.09,1.05.15,1.58l.56,5.88c.62-.06,1.3-.06,1.96-.06,1.9,0,4.02.13,6.25.28,2.4.15,4.88.31,7.27.31,7.06,0,14.28-1.28,14.28-10.75,0-6.26-5.03-13.57-13.12-19.08C63.37,6.15,50.04,2.52,35.53,2.52c-4.8,0-12.75.92-19.34,3.52C7.12,9.61,2.52,15.32,2.52,23.01c0,6.42,2.99,14.9,11.42,17.65l.34.07c.96.19,1.35.31,1.35,1.51,0,1.39-1.21,1.76-1.85,1.76-4.21,0-13.77-7.17-13.77-18.98,0-7.92,4.44-14.54,12.85-19.13C19.61,2.21,28.9,0,37.71,0c33.86,0,52.58,18.28,52.58,30.91s-9.55,13.77-18.9,13.77c-2.84,0-5.78-.16-8.63-.31-2.15-.12-4.19-.23-6.12-.27.48,4.33.97,8.16,1.46,11.41,2.45.93,4.78,1.81,7.02,2.65,17.26,6.48,28.67,10.76,40.06,22.22.42.51.91,1.24.91,1.94,0,.83-1.07,1.51-1.76,1.51ZM54.05,44.21c-2.62.35-6.77,1.49-6.85,3.68.08,1.99,2.89,4.44,6.98,6.06,0,0,0,0,0,0,.45.19.91.39,1.36.54-.15-1.03-.3-2.1-.45-3.18-.33-2.35-.67-4.78-1.05-7.11ZM107.84,73.56c-1.73,0-3.11-.68-4.05-1.36-1.57-1.13-2.8-2.89-3.37-4.82-.49-1.65-.42-3.18.19-4.32.5-.92,1.32-1.55,2.43-1.88.73-.22,1.31-.22,1.73,0,.29.16.5.42.6.79.02.08.1.34-.04.6-.12.23-.38.39-.77.51l-.24.04c-.58.09-1.08.18-1.5.3-1.32.4-1.18,1.62-.98,2.31.79,2.66,4.48,5.77,8.46,4.59,1.2-.35,2.05-.88,2.5-1.54-2.37-.42-4.03-1.87-4.7-4.12-.7-2.37-.04-3.49.82-3.74,1.58-.48,4.32,1.49,5.5,4.71.07.2.13.36.17.52.06.19.11.38.15.59,6.14,1.56,9.85.27,11.03-3.83.03-.08.04-.14.06-.2,0-.02.02-.05.03-.08.71-2.29,2.66-3.6,5.34-3.6,3.98.43,6.63,2.78,6.63,4.71,0,.53-.51,1-1.09,1-.7,0-1.16-.52-1.69-1.13-.86-.97-2.03-2.31-4.95-2.31-2.6,0-2.6,1.2-2.6,1.59,0,2.56,4.78,7.4,7.31,7.4,1.95,0,2.43-1.57,2.86-2.96.29-.94.56-1.83,1.34-1.83.69,0,1.33.48,2.13,1.09,1.61,1.21,4.04,3.03,9.21,3.03,3.91,0,9.47-.95,13.45-3.62-.97-1.76-1.53-3.19-1.53-3.94,0-.83.96-1.51,1.59-1.51.38,0,.58.18.59.54,1.82,5.51,3.51,7.91,4.71,8.95.11-5.99,2.13-9.15,5.88-9.15,3.95,0,6.81,1.93,9.84,3.97,3.48,2.35,7.08,4.77,12.84,4.77,3.33,0,6.94-.77,10.15-2.17,1.09-.5,2.35-1.11,3.48-1.98.1-.08.24-.07.33.02l.5.5s.07.11.07.18c0,.07-.03.13-.08.18-.93.86-2.19,1.69-3.75,2.48-4.4,2.08-9.03,3.22-13.05,3.22-3.47,0-6.34-.86-8.31-2.5-.82-.54-1.68-1.16-2.6-1.82-3.06-2.19-6.53-4.68-9-4.68-1.55,0-3.61.8-3.61,7.73,0,1.72-.45,2.6-1.34,2.6-1.78,0-4.59-3.84-6.07-6.29-4.3,3.12-11.59,5.29-17.86,5.29-3.69,0-6.69-2.36-7.51-3.07-1.37,1.95-3.24,2.98-5.43,2.98-3.58,0-7.04-2.78-7.87-6.2-1.94,2.79-5.95,3.88-11.18,3.01-.02.05-.04.1-.06.15-.21.57-.49,1.09-.85,1.56-.86,1.11-2.14,1.93-3.82,2.43-.72.22-1.41.31-2.04.31ZM109.99,63.6c.25.85,1.37,2.02,3.25,2.72-.02-.08-.04-.17-.06-.26-.4-1.47-1.08-2.6-1.81-3-.32-.18-.63-.21-.96-.12-.5.16-.48.45-.42.66Z"/>
</svg>